# xmcd
#
# Track frame offsets: 
#        150
#        25695
#        59489
#        94941
#        116872
#        142624
#        174978
#        207078
#        223102
#        241449
#        263491
#
# Disc length: 3728 seconds
#
# Revision: 0
# Processed by: cddbd v1.5.2PL0 Copyright (c) Steve Scherf et al.
# Submitted via: ExactAudioCopy v1.0b3
#
DISCID=960e8e0b
DTITLE=Various Artist - The Best In Dance Vol. 2 - CD 1
DYEAR=1900
DGENRE=
TTITLE0=Mylo Vs. Miami Sound Machine - Doctor Pressure (Dirty Club Mix
TTITLE0=)
TTITLE1=Hi_Tack - Say Say Say (Waiting 4 U) (Original)
TTITLE2=DJ Falk Pres. Niteriderz - Nightride (AKI Meets DJ Falk Club M
TTITLE2=ix)
TTITLE3=PG Feat. Jane - Wipe Away My Tears (Xtd Mix)
TTITLE4=Alex Megane - Little Lies (Club Mix)
TTITLE5=Special D. - Here I Am (Extended Mix)
TTITLE6=Ernesto Vs. Bastian - Dark Side Of The Moon (DJ Shog Rmx)
TTITLE7=666 and DJ Bonito - Atención (DJ Bonito Screen Cut)
TTITLE8=Paffendorf Feat. Leyla De Vaar - Under My Skin (Radio Edit)
TTITLE9=Tonic and Serenity - Downhill Dancing (Original Mix)
TTITLE10=Yves Deruyter - Infinity (Radio Edit)
EXTD=
EXTT0=
EXTT1=
EXTT2=
EXTT3=
EXTT4=
EXTT5=
EXTT6=
EXTT7=
EXTT8=
EXTT9=
EXTT10=
PLAYORDER=
